<?xml version="1.0" standalone="no"?>
<!DOCTYPE svg PUBLIC "-//W3C//DTD SVG 20010904//EN"
 "http://www.w3.org/TR/2001/REC-SVG-20010904/DTD/svg10.dtd">
<svg version="1.0" xmlns="http://www.w3.org/2000/svg"
 width="275.000000pt" height="183.000000pt" viewBox="0 0 275.000000 183.000000"
 preserveAspectRatio="xMidYMid meet">
<metadata>
Created by potrace 1.15, written by Peter Selinger 2001-2017
</metadata>
<g transform="translate(0.000000,183.000000) scale(0.100000,-0.100000)"
fill="#000000" stroke="none">
<path d="M0 1664 l0 -166 34 6 c19 4 37 2 40 -3 7 -11 -17 -21 -50 -21 l-24 0
0 -740 0 -740 480 0 480 1 0 22 c0 12 -7 105 -15 207 -8 102 -26 352 -40 555
-14 204 -32 463 -40 576 -8 113 -15 213 -15 222 0 10 -7 17 -15 17 -8 0 -15
-4 -15 -9 0 -5 -15 -9 -34 -8 -19 0 -33 4 -30 8 2 4 -3 14 -11 22 -8 9 -15 19
-15 23 0 5 4 4 10 -2 5 -5 27 -8 49 -6 l39 4 -5 66 c-6 93 -13 137 -21 125
-23 -35 -104 -46 -127 -18 -16 20 -16 20 -11 0 5 -17 0 -23 -31 -31 -57 -14
-83 -7 -83 22 0 19 4 24 18 20 9 -3 33 -1 52 4 23 5 -44 8 -192 8 -176 0 -225
-3 -222 -13 4 -10 -23 -24 -48 -25 -14 0 4 29 20 33 10 3 -27 5 -80 6 l-98 1
0 -166z"/>
<path d="M875 1740 c13 -249 19 -320 27 -320 4 0 8 8 8 19 0 14 10 20 41 25
48 8 59 2 59 -29 0 -22 -3 -24 -30 -19 -17 4 -36 1 -45 -6 -8 -6 -19 -9 -25
-5 -6 4 -10 -16 -10 -59 0 -36 5 -68 10 -71 6 -3 10 0 10 8 0 18 21 27 66 27
29 0 34 -3 34 -24 0 -20 -5 -25 -27 -26 -87 -4 -83 -1 -82 -50 2 -62 16 -190
17 -162 2 21 6 23 55 20 44 -3 52 -6 55 -24 3 -18 -3 -20 -53 -21 -31 0 -58
-3 -60 -5 -2 -2 -1 -17 4 -33 7 -29 8 -29 13 -7 6 20 12 23 50 20 36 -2 44 -7
46 -25 3 -23 -9 -27 -90 -26 -13 0 -18 -8 -18 -31 0 -27 1 -28 13 -12 10 13
24 17 57 14 40 -3 45 -6 45 -28 0 -23 -3 -25 -52 -24 l-53 1 1 -36 c1 -23 3
-28 6 -13 4 19 11 22 54 22 27 0 50 -4 51 -10 4 -31 1 -35 -27 -36 -16 -1 -42
-2 -57 -3 -19 -1 -28 -7 -28 -17 0 -11 5 -14 17 -10 9 4 36 4 60 0 37 -5 43
-10 43 -31 0 -23 -2 -24 -55 -20 l-55 4 1 -36 c1 -23 3 -28 6 -13 4 17 11 22
38 22 49 0 65 -9 65 -36 0 -23 -2 -24 -55 -18 l-55 7 0 -32 c0 -19 4 -30 10
-26 6 4 8 10 5 15 -7 11 24 17 65 10 29 -4 35 -9 35 -30 0 -19 -5 -24 -20 -23
-88 11 -85 12 -84 -26 1 -26 3 -29 6 -12 4 21 8 23 50 18 51 -5 69 -18 59 -42
-5 -14 -15 -15 -61 -10 -55 7 -55 7 -53 -19 3 -30 6 -32 22 -13 18 22 96 2 96
-24 0 -18 -5 -20 -56 -16 l-57 4 7 -86 c3 -47 9 -140 12 -206 4 -66 8 -122 11
-125 2 -2 8 2 13 10 7 12 16 12 55 2 34 -9 251 -12 865 -12 l820 0 -2 402 -3
403 -28 3 c-32 4 -45 26 -27 47 16 19 25 19 45 -1 14 -15 16 -9 13 76 -2 75
-6 95 -20 104 -13 8 -23 8 -38 -2 -11 -6 -29 -12 -40 -12 -11 0 -20 -4 -20
-10 0 -5 -9 -10 -20 -10 -16 0 -20 6 -18 33 3 26 -1 32 -17 32 -11 0 -21 8
-23 18 -3 15 2 18 34 15 24 -2 41 -10 48 -23 6 -11 12 -22 13 -24 1 -2 14 4
27 13 14 9 37 16 51 16 l25 0 0 375 0 376 -296 -2 c-244 -1 -296 -3 -301 -15
-6 -16 -33 -19 -33 -4 0 5 -13 7 -29 4 -16 -4 -32 -1 -35 5 -4 6 -14 11 -22
11 -8 0 -12 -4 -9 -10 3 -5 -1 -10 -10 -10 -9 0 -13 5 -10 10 4 6 -22 10 -70
10 -72 0 -75 -1 -65 -19 12 -24 13 -31 1 -31 -5 0 -12 11 -15 25 -9 36 -28 31
-24 -7 2 -17 -2 -33 -8 -35 -6 -2 -8 10 -6 32 4 30 1 35 -17 35 -18 0 -20 -3
-11 -19 5 -11 10 -26 10 -33 -1 -7 -9 3 -20 22 -15 29 -20 32 -25 17 -4 -9 -5
-29 -3 -42 3 -14 1 -25 -3 -25 -5 0 -9 18 -9 40 l0 40 -248 0 -249 0 3 -32 3
-33 -11 33 c-11 32 -11 32 -81 32 -67 0 -69 -1 -64 -22 3 -13 9 -88 13 -168 8
-167 7 -161 17 -177 5 -8 3 -13 -6 -13 -11 0 -16 27 -21 123 -3 67 -9 152 -12
190 l-7 67 -41 0 c-23 0 -46 -4 -52 -9 -5 -4 -30 -11 -56 -14 -39 -5 -48 -3
-52 11 -3 9 -3 -26 -1 -78z m271 -425 c6 -14 8 -13 20 2 9 12 13 14 14 5 0
-10 15 -13 58 -11 31 2 63 7 70 12 8 7 12 4 12 -9 0 -11 3 -15 8 -9 4 6 19 12
35 13 20 1 27 -3 27 -17 0 -25 -77 -35 -90 -11 -8 12 -9 12 -10 -5 -1 -20 -1
-20 -15 -1 -14 18 -15 18 -15 2 0 -15 -7 -17 -45 -14 -32 2 -45 -1 -45 -10 0
-7 -8 -12 -17 -10 -25 4 -32 -79 -9 -88 18 -7 22 -59 6 -69 -11 -7 -14 -98 -4
-108 4 -3 7 -39 9 -79 1 -40 5 -81 10 -92 6 -14 5 -18 -6 -14 -11 3 -16 39
-23 143 -6 94 -13 144 -22 153 -16 16 -19 62 -4 62 16 0 12 86 -5 100 -15 13
-20 51 -8 63 12 13 44 7 49 -8z m1344 -246 c5 -20 7 -21 13 -6 10 25 34 21 39
-8 3 -13 3 -27 0 -30 -3 -3 -49 -5 -103 -5 -83 0 -100 3 -108 18 -10 16 -10
16 -11 0 0 -13 -8 -18 -29 -18 -62 0 -78 22 -40 56 13 12 23 15 27 7 8 -12
121 -11 141 1 14 9 13 10 28 -24 12 -25 12 -25 12 8 1 39 22 40 31 1z m-1304
-394 c5 -11 10 -13 19 -5 9 8 14 7 17 -1 3 -8 28 -12 71 -13 37 0 67 -3 67 -6
0 -3 14 -6 31 -7 38 -3 43 -7 36 -28 -5 -11 -15 -14 -44 -9 -21 3 -41 11 -45
18 -6 8 -8 8 -8 -1 0 -20 -20 -15 -21 5 -1 15 -2 15 -6 1 -3 -13 -12 -16 -43
-12 -50 7 -68 -7 -62 -47 3 -20 0 -30 -8 -30 -16 0 -4 -261 12 -271 7 -4 6 -9
-1 -13 -6 -4 -12 -17 -12 -29 -1 -12 -7 51 -14 141 -8 95 -18 169 -25 177 -7
8 -10 29 -8 45 3 17 1 33 -4 36 -10 6 -11 48 -1 57 12 13 44 7 49 -8z"/>
</g>
</svg>
